<svg xmlns="http://www.w3.org/2000/svg" viewBox="0 0 400 120" width="400" height="120">
  <defs>
    <linearGradient id="email-mark" x1="0" y1="0" x2="1" y2="1">
      <stop offset="0%" stop-color="#0284c7"/>
      <stop offset="100%" stop-color="#7c3aed"/>
    </linearGradient>
    <radialGradient id="email-aura" cx="50%" cy="55%" r="55%">
      <stop offset="0%" stop-color="#818cf8" stop-opacity="0.4"/>
      <stop offset="100%" stop-color="#818cf8" stop-opacity="0"/>
    </radialGradient>
    <linearGradient id="email-wing" x1="0" y1="0" x2="1" y2="1">
      <stop offset="0%" stop-color="#0284c7" stop-opacity="0.85"/>
      <stop offset="100%" stop-color="#7c3aed" stop-opacity="0.3"/>
    </linearGradient>
  </defs>

  <g transform="translate(10, 10) scale(0.83)">
    <circle cx="60" cy="62" r="56" fill="url(#email-aura)"/>
    <path d="M55 50 Q20 30 14 54 Q16 72 44 66 Q52 62 55 52 Z" fill="url(#email-wing)"/>
    <path d="M65 50 Q100 30 106 54 Q104 72 76 66 Q68 62 65 52 Z" fill="url(#email-wing)"/>
    <path d="M60 44 Q64.5 46 64.5 54 Q63 58 63 62 Q64.5 66 64 74 Q62 80 60 82 Q58 80 56 74 Q55.5 66 57 62 Q57 58 55.5 54 Q55.5 46 60 44 Z" fill="#1e1b4b" opacity="0.92"/>
    <ellipse cx="60" cy="39" rx="7.5" ry="8.5" fill="#1e1b4b" opacity="0.97"/>
    <circle cx="60" cy="30" r="0.9" fill="#7c3aed"/>
    <path d="M54 32.5 Q60 29.5 66 32.5" stroke="#7c3aed" stroke-width="0.7" stroke-linecap="round" fill="none"/>
    <circle cx="57" cy="38" r="1.15" fill="#ffffff"/>
    <circle cx="63" cy="38" r="1.15" fill="#ffffff"/>
    <line x1="55" y1="70" x2="36" y2="90" stroke="#7c3aed" stroke-width="1.3" stroke-linecap="round"/>
    <circle cx="36" cy="90" r="2.8" fill="#7c3aed"/>
  </g>

  <text x="120" y="58" font-family="-apple-system, Segoe UI, Arial, sans-serif" font-size="22" font-weight="600" fill="#1e1b4b" letter-spacing="-0.5">Little ISMS Helper</text>
  <text x="120" y="82" font-family="ui-monospace, Consolas, monospace" font-size="11" font-weight="500" fill="#6d6b92" letter-spacing="1.5">ISMS · ISO 27001 · NIS-2</text>
</svg>
