<svg xmlns="http://www.w3.org/2000/svg" viewBox="0 0 24 24" fill="none" stroke="currentColor" stroke-width="1.4" stroke-linecap="round" stroke-linejoin="round"><circle cx="12" cy="12" r="2.5"></circle><path d="M19.5 12 a7.5 7.5 0 0 0 -.13 -1.4 l 2.13 -1.5 l -2 -3.46 l -2.45 .85 a7.5 7.5 0 0 0 -2.43 -1.4 L 14.13 3 H 9.87 L 9.38 5.09 a7.5 7.5 0 0 0 -2.43 1.4 L 4.5 5.64 l -2 3.46 l 2.13 1.5 a7.5 7.5 0 0 0 0 2.8 l -2.13 1.5 l 2 3.46 l 2.45 -.85 a7.5 7.5 0 0 0 2.43 1.4 l .49 2.09 h 4.26 l .49 -2.09 a7.5 7.5 0 0 0 2.43 -1.4 l 2.45 .85 l 2 -3.46 l -2.13 -1.5 a 7.5 7.5 0 0 0 .13 -1.4 Z"></path></svg>