<svg xmlns="http://www.w3.org/2000/svg" viewBox="0 0 24 24" fill="none" stroke="currentColor" stroke-width="1.4" stroke-linecap="round" stroke-linejoin="round"><path d="M12 21c4 0 7-2.7 7-6.5 0-2.5-1.2-4-2.5-5.5-1.2-1.3-1.5-2.5-1.5-3.5 0-1-0.5-2-1.5-2.5-0.5 2-2.5 3-3 4.5-0.4 1.2 0 2 0 2.5 0 0.5-1 0-1.5-1-0.5-1-1-2-1.5-2C5 9 4 11 4 14c0 4 3.5 7 8 7z"></path><path d="M9.5 17c0 1.5 1.2 2.5 2.5 2.5s2.5-1 2.5-2.5c0-1-0.7-1.5-1.5-2-0.5-0.3-0.7-0.7-0.7-1.2 0-0.4-0.3-0.7-0.7-0.7-0.5 0.7-1.2 1-1.5 1.5-0.3 0.5-0.6 1.5-0.6 2.4z"></path></svg>